<?xml version="1.0"?>
<svg xmlns="http://www.w3.org/2000/svg" xmlns:xlink="http://www.w3.org/1999/xlink" data-noselect="" viewBox="0 0 1835 1835" width="3670" height="3670" preserveAspectRatio="none" version="1.1"><defs><filter id="filter_shadow_shape_YApY9WMs6w" width="300%" height="300%" x="-100%" y="-100%">
              <feDropShadow dx="0" dy="0" stdDeviation="8" flood-color="#ffffff" flood-opacity="0.4"/>
            </filter></defs> <g id="background" data-noselect=""><!----> <!----></g> <g id="shape_YApY9WMs6w" transform="translate(4.999999999999922,4.99999999999995) rotate(0,886.5487315683704,886.54879976589) scale(1,1)" filter="url(#filter_shadow_shape_YApY9WMs6w)" style="cursor: default; opacity: 1;"><g><svg xmlns="http://www.w3.org/2000/svg" xmlns:xlink="http://www.w3.org/1999/xlink" version="1.1" id="&#x56FE;&#x5C42;_1" x="0px" y="0px" width="1825" height="1825" viewBox="0.8199999928474426 0.8199996948242188 198.36000061035156 198.36001586914062" style="enable-background:new 0 0 200 200;" xml:space="preserve" class="style-removed" preserveAspectRatio="none" data-parent="shape_YApY9WMs6w">

<linearGradient id="XMLID_2__tckCtCS9hW" gradientUnits="userSpaceOnUse" x1="195.8373" y1="155.5851" x2="3.355" y2="44.4554" gradientTransform="matrix(0.7071 0.7071 -0.7071 0.7071 100.2998 -41.1501)">
	<stop offset="0" stop-color="rgb(248, 248, 255)"/>
	<stop offset="1" stop-color="rgb(248, 248, 255)"/>
</linearGradient>
<path id="XMLID_15__tT7Fr2w7w6" d="M0.82,153.13V46.87c0-25.43,20.62-46.05,46.05-46.05l106.26,0c25.43,0,46.05,20.62,46.05,46.05  l0,106.26c0,25.43-20.62,46.05-46.05,46.05l-106.26,0C21.44,199.18,0.82,178.56,0.82,153.13z" fill="url(#XMLID_2__tckCtCS9hW)" stroke-width="0"/>
</svg></g></g><g id="shape_chbUYTnNcy" transform="translate(119.02332574127726,346.92182575350785) rotate(0,798.4766742587228,570.5781742464922) scale(1,1)" filter="" style="cursor: default; opacity: 1;"><g><svg xmlns="http://www.w3.org/2000/svg" xmlns:xlink="http://www.w3.org/1999/xlink" version="1.1" id="&#x56FE;&#x5C42;_1" x="0px" y="0px" width="1596.9533485174456" height="1141.1563484929843" viewBox="4 31.400001525878906 192 137.20001220703125" style="enable-background:new 0 0 200 200;" xml:space="preserve" class="style-removed" preserveAspectRatio="none" data-parent="shape_chbUYTnNcy">

<path d="M147.5,70.4c-4.5-22.3-24.2-39-47.8-39c-23.6,0-43.3,16.8-47.8,39.1C25.3,70.9,4,92.5,4,119.2  c0,26.9,21.8,49.4,48.8,49.4h53.7l-5.5-6.9l-27.3-0.2c-20.9,0-38.5-18-38.5-38.9c0-20.6,16.6-37.4,37.1-37.8  c3.5-17.3,18.7-30.3,37.1-30.3c18.3,0,33.5,13,37,30.3c20.8,0.1,37.7,17,37.7,37.8c0,20.8-25.3,45-46.2,45.2c0,0,0,0,0,0h9.3  c26.9,0,48.8-21.8,48.8-48.8C196,92.3,174.3,70.5,147.5,70.4z" fill="#28B7EB" stroke-width="0"/>
</svg></g></g><g id="shape_lRTQzxPkFi" transform="translate(-430.76129547084383,-515.827769918214) rotate(0,1445.3338203478777,1596.26814453125) scale(1,1)" filter="" style="cursor: default; opacity: 1;"><g><svg xmlns="http://www.w3.org/2000/svg" xmlns:xlink="http://www.w3.org/1999/xlink" version="1.1" width="3776.987640695755" height="3192.5362890625" viewBox="0 0 3776.987640695755 3192.5362890625" data-parent="shape_lRTQzxPkFi"><g data-width="909.5175922461799" transform="translate(990.5750242247877, 0)"><line x1="0" x2="909.5175922461799" y1="1808.90814453125" y2="1808.90814453125" stroke="#333333" stroke-width="0" stroke-opacity="1"/></g><g data-width="909.5175922461799" transform="translate(990.5750242247877, 0)"><path d="M45.44-304.46L45.44-304.46L111.87-304.46Q127.88-304.46 127.88-288.01L127.88-288.01L127.88-2.16Q127.88 14.28 111.87 14.28L111.87 14.28L45.44 14.28Q29.43 14.28 29.43-2.16L29.43-2.16L29.43-288.01Q29.43-304.46 45.44-304.46Z" transform="translate(0 1763.76814453125) skewX(0)" fill="#000000" stroke="#000000" stroke-width="0.739" stroke-miterlimit="3" data-glyph-w="209.69346824872665" data-glyph-h="531.8785546875" data-glyph-ascender="434.28814453125" data-glyph-descender="-97.59041015625"/><path d="M283.90-289.53L283.90-289.53L283.90-283.68Q283.90-268.97 268.54-268.97L268.54-268.97L129.83-268.97Q118.36-268.97 113.39-264.21L113.39-264.21Q108.41-259.66 108.41-248.84L108.41-248.84L108.41-208.16Q108.41-197.34 113.39-192.80L113.39-192.80Q118.36-188.04 129.83-188.04L129.83-188.04L267.89-188.04Q283.25-188.04 283.25-171.59L283.25-171.59L283.25-1.73Q283.25 14.71 267.89 14.71L267.89 14.71L30.51 14.71Q14.93 14.71 14.93 0L14.93 0L14.93-5.84Q14.93-20.56 30.51-20.56L30.51-20.56L165.32-20.56Q176.79-20.56 181.76-25.32L181.76-25.32Q186.74-29.86 186.74-40.68L186.74-40.68L186.74-132.65Q186.74-143.46 181.76-148.22L181.76-148.22Q176.79-152.77 165.32-152.77L165.32-152.77L27.05-152.77Q11.68-152.77 11.68-169.21L11.68-169.21L11.68-287.79Q11.68-304.24 27.05-304.24L27.05-304.24L268.54-304.24Q283.90-304.24 283.90-289.53Z" transform="translate(209.69346824872665 1763.76814453125) skewX(0)" fill="#000000" stroke="#000000" stroke-width="0.739" stroke-miterlimit="3" data-glyph-w="349.91206199872664" data-glyph-h="531.8785546875" data-glyph-ascender="434.28814453125" data-glyph-descender="-97.59041015625"/><path d="M283.90-289.53L283.90-289.53L283.90-283.68Q283.90-268.97 268.54-268.97L268.54-268.97L129.83-268.97Q118.36-268.97 113.39-264.21L113.39-264.21Q108.41-259.66 108.41-248.84L108.41-248.84L108.41-208.16Q108.41-197.34 113.39-192.80L113.39-192.80Q118.36-188.04 129.83-188.04L129.83-188.04L267.89-188.04Q283.25-188.04 283.25-171.59L283.25-171.59L283.25-1.73Q283.25 14.71 267.89 14.71L267.89 14.71L30.51 14.71Q14.93 14.71 14.93 0L14.93 0L14.93-5.84Q14.93-20.56 30.51-20.56L30.51-20.56L165.32-20.56Q176.79-20.56 181.76-25.32L181.76-25.32Q186.74-29.86 186.74-40.68L186.74-40.68L186.74-132.65Q186.74-143.46 181.76-148.22L181.76-148.22Q176.79-152.77 165.32-152.77L165.32-152.77L27.05-152.77Q11.68-152.77 11.68-169.21L11.68-169.21L11.68-287.79Q11.68-304.24 27.05-304.24L27.05-304.24L268.54-304.24Q283.90-304.24 283.90-289.53Z" transform="translate(559.6055302474533 1763.76814453125) skewX(0)" fill="#000000" stroke="#000000" stroke-width="0.739" stroke-miterlimit="3" data-glyph-w="349.91206199872664" data-glyph-h="531.8785546875" data-glyph-ascender="434.28814453125" data-glyph-descender="-97.59041015625"/></g><g data-width="909.5175922461799" transform="translate(990.5750242247877, 0)"><path d="M45.44-304.46L45.44-304.46L111.87-304.46Q127.88-304.46 127.88-288.01L127.88-288.01L127.88-2.16Q127.88 14.28 111.87 14.28L111.87 14.28L45.44 14.28Q29.43 14.28 29.43-2.16L29.43-2.16L29.43-288.01Q29.43-304.46 45.44-304.46Z" transform="translate(0 1763.76814453125) skewX(0)" fill="rgb(40, 183, 235)" stroke="rgb(40, 183, 235)" stroke-width="0.739" data-glyph-w="209.69346824872665" data-glyph-h="531.8785546875" data-glyph-ascender="434.28814453125" data-glyph-descender="-97.59041015625"/><path d="M283.90-289.53L283.90-289.53L283.90-283.68Q283.90-268.97 268.54-268.97L268.54-268.97L129.83-268.97Q118.36-268.97 113.39-264.21L113.39-264.21Q108.41-259.66 108.41-248.84L108.41-248.84L108.41-208.16Q108.41-197.34 113.39-192.80L113.39-192.80Q118.36-188.04 129.83-188.04L129.83-188.04L267.89-188.04Q283.25-188.04 283.25-171.59L283.25-171.59L283.25-1.73Q283.25 14.71 267.89 14.71L267.89 14.71L30.51 14.71Q14.93 14.71 14.93 0L14.93 0L14.93-5.84Q14.93-20.56 30.51-20.56L30.51-20.56L165.32-20.56Q176.79-20.56 181.76-25.32L181.76-25.32Q186.74-29.86 186.74-40.68L186.74-40.68L186.74-132.65Q186.74-143.46 181.76-148.22L181.76-148.22Q176.79-152.77 165.32-152.77L165.32-152.77L27.05-152.77Q11.68-152.77 11.68-169.21L11.68-169.21L11.68-287.79Q11.68-304.24 27.05-304.24L27.05-304.24L268.54-304.24Q283.90-304.24 283.90-289.53Z" transform="translate(209.69346824872665 1763.76814453125) skewX(0)" fill="rgb(40, 183, 235)" stroke="rgb(40, 183, 235)" stroke-width="0.739" data-glyph-w="349.91206199872664" data-glyph-h="531.8785546875" data-glyph-ascender="434.28814453125" data-glyph-descender="-97.59041015625"/><path d="M283.90-289.53L283.90-289.53L283.90-283.68Q283.90-268.97 268.54-268.97L268.54-268.97L129.83-268.97Q118.36-268.97 113.39-264.21L113.39-264.21Q108.41-259.66 108.41-248.84L108.41-248.84L108.41-208.16Q108.41-197.34 113.39-192.80L113.39-192.80Q118.36-188.04 129.83-188.04L129.83-188.04L267.89-188.04Q283.25-188.04 283.25-171.59L283.25-171.59L283.25-1.73Q283.25 14.71 267.89 14.71L267.89 14.71L30.51 14.71Q14.93 14.71 14.93 0L14.93 0L14.93-5.84Q14.93-20.56 30.51-20.56L30.51-20.56L165.32-20.56Q176.79-20.56 181.76-25.32L181.76-25.32Q186.74-29.86 186.74-40.68L186.74-40.68L186.74-132.65Q186.74-143.46 181.76-148.22L181.76-148.22Q176.79-152.77 165.32-152.77L165.32-152.77L27.05-152.77Q11.68-152.77 11.68-169.21L11.68-169.21L11.68-287.79Q11.68-304.24 27.05-304.24L27.05-304.24L268.54-304.24Q283.90-304.24 283.90-289.53Z" transform="translate(559.6055302474533 1763.76814453125) skewX(0)" fill="rgb(40, 183, 235)" stroke="rgb(40, 183, 235)" stroke-width="0.739" data-glyph-w="349.91206199872664" data-glyph-h="531.8785546875" data-glyph-ascender="434.28814453125" data-glyph-descender="-97.59041015625"/></g></svg></g></g>  <!----></svg>
